<svg width="23" height="34" viewBox="0 0 23 34" fill="none" xmlns="http://www.w3.org/2000/svg">
<path d="M0 8.77783H4.88906C4.88906 8.77783 16.419 10.3605 16.419 21.6383C16.419 21.6383 16.419 28.2494 11.1113 28.2494V24.7494C13.4447 23.9717 13.1019 21.6383 13.1019 21.6383C13.1019 13.4717 4.88906 13.0556 4.88906 13.0556L4.11128 13.0556V33.6667H0V8.77783Z" fill="#5A233E"/>
<path d="M23 8.77783H17.9748C17.9748 8.77783 6.44479 10.3605 6.44479 21.6383C6.44479 21.6383 6.4448 28.2494 11.7525 28.2494V24.7494C9.41912 23.9717 9.76197 21.6383 9.76197 21.6383C9.76197 13.4717 17.9748 13.0556 17.9748 13.0556L18.7525 13.0556V33.6667H23V8.77783Z" fill="#5A233E"/>
<path fill-rule="evenodd" clip-rule="evenodd" d="M22.9997 9.52991e-09C22.9996 9.52991e-09 22.9996 0 22.9995 0C20.7294 0 18.8892 1.79087 18.8892 4.00003C18.8892 6.20918 20.7294 8.00005 22.9995 8.00005C22.9996 8.00005 22.9996 8.00005 22.9997 8.00005V9.52991e-09Z" fill="#5A233E"/>
<path fill-rule="evenodd" clip-rule="evenodd" d="M0.000286579 0C2.27075 0 4.11133 1.79086 4.11133 4C4.11133 6.20914 2.27075 8 0.000286579 8V0Z" fill="#5A233E"/>
</svg>
