<svg width="312" height="288" viewBox="0 0 312 288" fill="none" xmlns="http://www.w3.org/2000/svg">
<path d="M146.964 49.6379C135.564 62.4379 131.364 74.2379 131.364 95.2379C131.364 117.438 137.764 131.838 158.164 154.838C170.964 169.438 175.764 180.438 176.964 198.838L177.964 215.438L168.164 234.238C154.564 260.638 146.164 278.038 144.564 283.238L143.164 287.838H187.164H231.364L230.364 282.238C229.964 279.238 228.564 270.838 227.364 263.438C226.164 256.038 223.564 245.838 221.364 240.838C216.364 229.038 199.764 204.438 186.164 188.238C172.164 171.838 167.564 161.238 160.564 129.438C159.764 126.238 157.564 123.638 154.764 122.838C148.764 120.838 139.364 111.838 139.364 108.038C139.564 105.838 140.364 106.638 142.164 109.638L144.964 114.638L146.364 108.238C146.964 104.638 148.564 101.838 149.564 101.838C150.764 101.838 150.764 103.438 149.364 105.638C146.564 111.238 146.764 113.238 151.364 117.838C157.564 124.038 161.364 123.038 160.764 115.038C160.564 111.238 159.764 108.638 158.964 109.238C157.964 109.638 157.364 109.238 157.364 108.038C157.364 107.038 158.364 105.438 159.564 104.838C160.764 104.038 161.564 99.2379 161.364 94.0379C161.164 89.0379 161.164 84.2379 161.364 83.2379C161.764 81.6379 161.964 75.6379 161.564 70.4379C161.364 65.6379 158.164 69.4379 155.564 77.8379L153.364 84.8379L154.364 78.0379C154.964 74.2379 156.764 69.6379 158.564 67.6379C160.964 65.0379 161.164 63.2379 159.564 60.2379C158.364 58.0379 158.164 55.8379 158.764 55.0379C159.364 54.4379 159.364 53.8379 158.564 53.8379C155.764 53.8379 148.364 64.6379 148.964 67.8379C149.364 70.2379 149.164 70.2379 147.764 68.0379C146.364 66.0379 144.964 67.6379 142.764 74.0379C140.964 78.8379 139.164 84.6379 138.564 86.8379C137.964 89.0379 137.764 86.8379 138.364 82.0379C138.764 75.4379 141.164 70.6379 148.364 61.4379C156.364 51.0379 157.364 49.0379 154.964 46.6379C152.564 44.0379 151.364 44.6379 146.964 49.6379ZM150.764 81.2379C150.164 83.2379 149.764 81.6379 149.764 77.8379C149.764 74.0379 150.164 72.4379 150.764 74.2379C151.164 76.2379 151.164 79.4379 150.764 81.2379ZM149.964 89.6379C149.364 91.8379 146.964 95.2379 144.764 97.2379C140.364 100.838 140.364 100.838 143.964 96.6379C145.764 94.4379 147.364 91.0379 147.364 89.2379C147.364 87.4379 148.164 85.8379 149.164 85.8379C150.164 85.8379 150.564 87.6379 149.964 89.6379Z" fill="#404040"/>
<path d="M76.3638 1.0379C63.3638 3.83792 55.5638 6.63791 56.5638 8.0379C56.9638 8.83792 59.5638 8.83792 62.1638 7.83792C64.5638 7.0379 67.9638 7.0379 69.3638 7.83792C70.9638 8.83792 72.9638 9.0379 74.1638 8.4379C75.1638 7.63791 74.3638 6.4379 72.1638 5.63791C69.1638 4.4379 69.1638 4.0379 71.5638 4.0379C73.3638 3.83792 75.9638 5.23792 77.3638 6.83792C79.3638 9.23792 78.7638 9.83792 74.5638 11.0379C67.3638 12.8379 68.1638 15.2379 75.9638 15.2379C79.3638 15.2379 80.7638 14.8379 78.7638 14.4379C75.5638 13.6379 75.7638 13.0379 80.1638 9.63791C85.1638 5.63791 89.5638 4.83792 92.1638 7.23792C92.9638 8.0379 95.9638 8.63791 98.9638 8.83792C101.964 8.83792 104.164 9.83792 103.964 10.8379C103.764 12.2379 106.364 12.6379 110.364 12.2379C115.764 11.6379 117.564 12.4379 120.364 16.6379C122.364 19.4379 124.964 21.8379 126.564 21.8379C130.364 21.8379 139.364 34.4379 139.364 39.6379C139.364 42.0379 138.564 43.4379 137.364 42.8379C136.364 42.2379 135.164 43.6379 135.164 46.2379C134.964 49.6379 134.564 49.8379 133.964 47.2379C133.564 45.4379 131.764 43.8379 130.164 43.8379C126.764 43.8379 126.364 49.0379 129.964 50.4379C131.364 51.0379 130.964 51.6379 128.964 51.6379C124.564 51.8379 124.364 54.4379 128.364 57.8379C133.164 61.8379 132.164 67.8379 126.364 67.8379C123.764 67.8379 120.764 69.0379 119.964 70.4379C117.564 74.6379 107.764 80.2379 105.564 79.0379C104.564 78.2379 102.564 79.4379 101.364 81.2379C99.7638 84.2379 99.5638 83.8379 100.564 79.2379C101.964 73.2379 99.3638 72.0379 95.3638 76.8379C93.3638 79.2379 93.3638 80.4379 95.3638 82.8379C97.3638 85.2379 97.3638 85.8379 95.1638 85.8379C93.7638 85.8379 90.5638 87.8379 87.9638 90.2379C85.3638 92.6379 83.3638 93.4379 83.3638 92.2379C83.3638 90.8379 84.3638 89.8379 85.7638 89.8379C86.9638 89.8379 87.5638 89.2379 86.9638 88.6379C86.1638 88.0379 83.3638 89.0379 80.5638 90.8379C74.7638 94.6379 68.9638 93.4379 61.7638 86.8379C56.3638 81.8379 52.3638 82.2379 49.1638 88.0379C47.5638 91.0379 47.9638 91.4379 50.7638 90.4379C52.7638 89.8379 53.9638 89.6379 53.3638 90.4379C52.3638 91.6379 31.1638 99.8379 29.1638 99.8379C27.1638 99.8379 17.3638 90.2379 17.3638 88.2379C17.3638 87.2379 16.1638 85.2379 14.5638 84.0379C11.3638 81.2379 10.9638 74.2379 13.9638 70.2379C15.1638 68.6379 15.1638 67.8379 13.5638 67.8379C12.3638 67.8379 11.3638 65.6379 11.3638 63.0379C11.3638 59.2379 12.1638 58.6379 16.3638 59.4379C20.5638 60.2379 21.3638 59.6379 21.3638 55.4379C21.3638 48.4379 18.9638 47.0379 15.9638 52.2379C14.5638 54.8379 13.5638 55.8379 13.3638 54.6379C13.3638 50.4379 25.5638 33.6379 30.3638 31.4379C33.1638 30.2379 35.3638 28.4379 35.3638 27.4379C35.3638 26.4379 34.5638 26.2379 33.3638 26.8379C32.1638 27.4379 31.9638 26.6379 32.5638 25.0379C33.1638 23.2379 34.9638 21.8379 36.3638 21.8379C37.7638 21.8379 41.1638 19.6379 43.9638 16.8379C47.3638 13.2379 49.3638 12.4379 49.9638 14.2379C50.5638 16.2379 51.7638 16.0379 54.5638 13.2379C58.1638 9.83792 57.9638 9.83792 52.3638 10.2379C44.3638 10.8379 28.1638 21.0379 18.5638 31.8379C8.96378 42.6379 3.56378 54.6379 1.16378 71.0379C-0.43622 82.6379 -0.0362198 85.2379 4.76378 98.2379C9.76378 112.238 10.5638 119.038 8.96378 139.838C8.36378 146.438 8.76378 146.838 15.3638 147.838C21.5638 148.638 22.3638 149.438 22.3638 154.838C22.5638 159.438 23.5638 161.038 27.3638 161.838C30.7638 162.638 31.5638 163.438 29.7638 164.638C26.3638 166.638 26.7638 171.838 30.1638 171.838C34.7638 171.838 39.3638 177.638 39.3638 183.638C39.3638 186.638 40.3638 190.038 41.7638 191.438C45.5638 195.238 59.5638 194.238 67.9638 189.838C77.7638 184.638 81.1638 185.838 90.1638 197.238C96.7638 205.838 97.3638 207.438 97.3638 220.438C97.3638 233.438 96.5638 235.838 85.3638 258.038C78.7638 271.038 73.3638 283.038 73.3638 284.838C73.3638 287.438 78.1638 287.838 107.164 287.838C140.564 287.838 141.164 287.838 142.564 283.238C143.964 278.438 156.364 253.238 168.164 231.238C174.564 219.038 175.364 215.838 175.364 202.638C175.364 183.838 170.564 172.638 152.564 150.038C134.964 127.838 133.764 125.438 129.364 103.038C125.764 85.6379 134.764 58.4379 148.164 46.0379L153.164 41.2379L147.764 34.0379C129.164 9.4379 100.564 -3.9621 76.3638 1.0379Z" fill="#F2D522"/>
<path d="M61.5636 10.4379C56.3636 13.0379 53.5636 17.8379 57.1636 17.8379C58.3636 17.8379 59.3636 16.4379 59.3636 14.6379C59.3636 13.0379 60.1636 12.0379 61.1636 12.6379C62.1636 13.2379 63.9636 12.4379 65.3636 10.8379C68.3636 7.23789 67.7636 7.23789 61.5636 10.4379Z" fill="#F2D522"/>
<path d="M82.9637 9.03789C81.3637 10.4379 85.5637 17.8379 87.9637 17.8379C88.9637 17.8379 88.9637 15.8379 88.3637 13.2379C87.3637 9.63789 87.5637 9.43789 89.3637 11.8379C91.3637 14.4379 91.5637 14.4379 90.7637 11.8379C89.9637 8.63789 84.9637 6.83789 82.9637 9.03789Z" fill="#F2D522"/>
<path d="M106.764 15.238C104.364 15.838 103.364 17.638 103.764 20.438C104.564 25.838 108.164 25.438 108.964 19.838C109.564 15.838 111.564 14.638 113.964 17.038C114.564 17.838 113.964 19.638 112.364 21.238C110.764 22.838 109.364 24.838 109.364 25.838C109.364 27.838 115.564 29.438 118.964 28.438C122.964 27.038 121.564 24.038 117.364 25.238C115.164 25.838 113.364 25.438 113.364 24.238C113.364 23.038 115.364 21.838 117.764 21.438C121.964 20.838 121.964 20.638 118.564 17.238C114.964 13.838 113.364 13.438 106.764 15.238Z" fill="#F2D522"/>
<path d="M91.3638 18.2379C91.3638 19.4379 92.5638 19.8379 94.1638 19.2379C95.7638 18.6379 97.5638 18.8379 98.1638 20.0379C98.5638 21.0379 98.7638 20.8379 98.5638 19.6379C97.9638 16.6379 91.3638 15.4379 91.3638 18.2379Z" fill="#F2D522"/>
<path d="M65.9637 19.2378C67.7637 19.6378 70.9637 19.6378 72.9637 19.2378C74.7637 18.6378 73.1637 18.2378 69.3637 18.2378C65.5637 18.2378 63.9637 18.6378 65.9637 19.2378Z" fill="#F2D522"/>
<path d="M40.1636 22.838C39.3636 24.438 38.1636 25.238 37.1636 24.638C36.1636 24.038 35.9636 25.038 36.5636 26.638C37.5636 29.038 38.5636 29.238 41.5636 27.638C43.7636 26.638 44.9636 24.838 44.3636 23.838C43.7636 22.838 44.9636 21.638 46.7636 21.238C49.5636 20.438 49.1636 20.238 45.7636 20.038C43.3636 20.038 40.7636 21.238 40.1636 22.838Z" fill="#F2D522"/>
<path d="M50.964 25.2378C49.364 28.6378 46.764 30.6378 44.964 30.2378C43.164 30.0378 40.564 31.4378 39.364 33.8378C37.364 37.4378 37.564 37.6378 42.164 35.8378C47.564 33.8378 50.564 36.0378 48.164 40.2378C46.964 42.2378 47.364 42.2378 49.564 40.2378C51.364 38.4378 51.564 37.2378 49.964 35.6378C48.164 33.8378 48.564 32.2378 51.364 29.2378C53.564 27.0378 54.764 24.4378 54.164 23.4378C53.564 22.6378 54.564 21.8378 56.364 21.8378C58.764 21.8378 59.364 22.8378 58.364 25.2378C57.364 28.0378 57.764 28.2378 59.564 26.4378C60.764 25.2378 61.164 23.2378 60.564 22.0378C58.164 18.2378 53.564 19.6378 50.964 25.2378Z" fill="#F2D522"/>
<path d="M63.3638 27.6379C63.3638 32.2379 63.5638 32.4379 67.3638 28.8379C69.5638 26.8379 71.9638 25.8379 72.5638 26.4379C73.3638 27.2379 72.3638 28.2379 70.5638 29.0379C68.7638 29.6379 67.3638 31.2379 67.3638 32.2379C67.3638 33.4379 68.5638 33.2379 70.3638 31.8379C73.5638 29.0379 74.5638 31.8379 71.3638 35.0379C70.3638 36.0379 70.1638 38.0379 71.3638 39.8379C72.7638 42.0379 73.3638 41.6379 74.1638 37.6379C74.7638 35.0379 74.9638 31.0379 74.5638 28.8379C73.9638 26.6379 73.5638 24.4379 73.5638 23.8379C73.3638 23.2379 71.1638 22.8379 68.3638 22.8379C64.3638 22.8379 63.3638 23.8379 63.3638 27.6379Z" fill="#F2D522"/>
<path d="M82.3639 27.8379C79.5639 31.0379 79.3639 32.2379 81.3639 34.8379C82.7639 36.4379 84.7639 37.2379 85.9639 36.4379C87.1639 35.6379 87.5639 36.4379 86.7639 38.4379C86.1639 40.4379 86.3639 41.8379 87.3639 41.8379C90.1639 41.8379 89.7639 37.4379 86.3639 33.0379C84.7639 31.0379 83.9639 28.4379 84.7639 27.2379C85.3639 26.2379 86.5639 26.4379 87.3639 27.8379C88.3639 29.4379 90.3639 29.8379 92.5639 29.0379C95.7639 27.8379 95.7639 27.4379 93.3639 25.8379C88.9639 23.0379 86.3639 23.4379 82.3639 27.8379Z" fill="#F2D522"/>
<path d="M127.364 26.8379C130.164 28.4379 131.164 29.8379 129.964 30.0379C128.564 30.2379 126.164 30.4379 124.964 30.6379C120.964 31.0379 121.364 39.2379 125.164 38.8379C133.564 38.2379 136.564 29.6379 129.564 25.8379C123.564 22.8379 121.764 23.6379 127.364 26.8379Z" fill="#F2D522"/>
<path d="M107.364 29.6379C107.364 30.6379 108.764 32.4379 110.364 33.8379C112.764 35.8379 113.364 35.8379 113.364 33.2379C113.364 31.6379 111.964 29.8379 110.364 29.0379C108.764 28.4379 107.364 28.6379 107.364 29.6379Z" fill="#F2D522"/>
<path d="M94.3637 31.8379C92.9637 34.2379 94.7637 37.8379 97.3637 37.8379C98.3637 37.8379 98.9637 36.0379 98.7637 33.8379C98.5637 29.6379 96.3637 28.6379 94.3637 31.8379Z" fill="#F2D522"/>
<path d="M55.9639 39.2379C55.5639 43.0379 56.3639 45.8379 57.5639 45.8379C58.7639 45.8379 59.3639 44.4379 58.7639 43.0379C57.9639 41.0379 58.5639 40.4379 60.1639 41.0379C61.7639 41.6379 63.3639 40.2379 63.9639 38.0379C64.5639 35.6379 64.1639 34.2379 63.1639 35.0379C62.1639 35.6379 61.3639 35.2379 61.3639 34.2379C61.3639 33.2379 60.1639 32.4379 58.9639 32.4379C57.5639 32.4379 56.1639 35.4379 55.9639 39.2379Z" fill="#F2D522"/>
<path d="M114.764 37.2379C114.364 38.2379 114.564 41.0379 115.164 43.6379C116.364 47.6379 116.764 48.0379 118.964 45.4379C120.364 43.6379 120.964 40.8379 120.164 39.0379C118.964 35.6379 116.164 34.8379 114.764 37.2379Z" fill="#F2D522"/>
<path d="M29.9639 42.0379C30.1639 44.0379 31.3639 45.8379 32.7639 45.8379C36.3639 45.8379 35.9639 40.4379 32.5639 39.2379C30.5639 38.4379 29.7639 39.2379 29.9639 42.0379Z" fill="#F2D522"/>
<path d="M106.364 41.8379C105.764 42.8379 106.564 43.8379 108.364 43.8379C110.164 43.8379 110.964 44.6379 110.364 45.8379C109.764 46.8379 110.164 47.8379 111.164 47.8379C113.764 47.8379 113.764 47.2379 112.164 43.0379C110.764 39.4379 108.164 38.8379 106.364 41.8379Z" fill="#F2D522"/>
<path d="M44.5637 52.2378C42.5637 54.4378 41.5637 56.8378 42.1637 57.4378C42.9637 58.0378 44.5637 57.2378 45.9637 55.4378C47.1637 53.6378 49.7637 51.8378 51.1637 51.4378C53.7637 50.6378 53.7637 50.4378 50.9637 49.4378C49.1637 48.6378 46.5637 49.8378 44.5637 52.2378Z" fill="#F2D522"/>
<path d="M60.1638 50.2378C59.1638 51.6378 59.7638 52.0378 61.5638 51.0378C63.1638 50.2378 62.5638 51.0378 60.5638 52.6378C56.9638 55.4378 56.9638 55.8378 59.9638 55.8378C63.1638 55.8378 63.1638 56.2378 60.1638 61.2378C58.3638 64.4378 58.1638 65.4378 59.5638 63.8378C61.1638 62.0378 63.9638 61.0378 65.9638 61.4378C68.1638 61.8378 69.3638 60.8378 69.3638 58.8378C69.3638 56.0378 68.7638 55.8378 66.5638 57.6378C64.3638 59.6378 63.7638 59.4378 64.1638 57.4378C64.3638 56.0378 65.1638 53.8378 65.9638 52.6378C67.3638 50.2378 65.9638 47.8378 63.1638 47.8378C62.3638 47.8378 60.9638 48.8378 60.1638 50.2378Z" fill="#F2D522"/>
<path d="M93.3637 52.838C96.3637 56.438 100.164 56.838 98.1637 53.438C97.1637 51.838 97.7637 51.638 99.9637 52.438C101.964 53.038 103.364 52.838 103.364 51.838C103.364 50.638 100.564 49.838 97.1637 49.838C91.7637 49.838 91.1637 50.238 93.3637 52.838Z" fill="#F2D522"/>
<path d="M77.1637 59.2378C76.9637 60.2378 76.9637 61.4378 77.1637 62.2378C77.1637 63.2378 76.3637 63.8378 74.9637 63.8378C73.7637 63.8378 73.1637 64.4378 73.7637 65.0378C75.3637 66.6378 83.3637 62.2378 83.3637 59.8378C83.3637 57.4378 77.5637 57.0378 77.1637 59.2378Z" fill="#F2D522"/>
<path d="M91.364 60.4379C76.764 68.2379 76.764 68.2379 79.564 70.0379C84.164 73.0379 86.164 72.2379 91.964 64.8379C94.964 61.0379 97.364 57.8379 96.964 57.8379C96.564 57.8379 94.164 59.0379 91.364 60.4379Z" fill="#F2D522"/>
<path d="M104.164 59.438C103.164 60.238 101.964 63.038 101.764 65.838C101.564 69.438 101.964 70.038 103.364 67.838C104.364 66.238 104.764 64.438 104.164 63.638C103.764 62.838 104.564 61.838 105.764 61.238C107.164 60.838 107.964 59.838 107.364 59.238C106.764 58.638 105.364 58.638 104.164 59.438Z" fill="#F2D522"/>
<path d="M94.1637 64.6378C92.1637 66.2378 91.1637 68.2378 91.9637 69.0378C92.7637 69.8378 94.9637 69.0378 96.7637 67.2378C101.164 63.0378 99.1637 61.0378 94.1637 64.6378Z" fill="#F2D522"/>
<path d="M41.3636 67.0379C44.3636 70.6379 46.7636 70.6379 46.7636 67.2379C46.7636 65.8379 44.9636 64.4379 42.9636 64.4379C39.7636 64.0379 39.5636 64.6379 41.3636 67.0379Z" fill="#F2D522"/>
<path d="M112.164 67.0379C112.964 69.4379 112.564 70.0379 110.364 69.0379C108.164 68.2379 107.364 69.4379 107.364 73.4379L107.564 78.8379L111.364 74.0379C113.564 71.6379 114.964 68.6379 114.364 67.8379C113.764 66.8379 114.564 65.6379 115.764 65.2379C117.364 64.6379 116.764 64.0379 114.564 64.0379C111.964 63.8379 111.364 64.8379 112.164 67.0379Z" fill="#F2D522"/>
<path d="M72.3638 71.838C71.5638 73.038 70.3638 73.438 69.5638 73.038C68.7638 72.438 67.9638 74.038 67.7638 76.638C67.5638 79.238 69.1638 82.038 71.9638 83.638C75.9638 86.238 76.1638 86.238 73.5638 83.038C71.3638 80.438 71.3638 78.638 72.9638 74.838C75.1638 69.838 74.7638 67.838 72.3638 71.838Z" fill="#F2D522"/>
<path d="M41.3638 73.6378C41.3638 74.8378 39.9638 75.8378 38.3638 75.8378C36.7638 75.8378 35.3638 76.6378 35.3638 77.8378C35.3638 80.8378 39.1638 80.2378 42.5638 77.0378C44.3638 75.2378 44.5638 73.6378 43.3638 72.8378C42.3638 72.2378 41.3638 72.6378 41.3638 73.6378Z" fill="#F2D522"/>
<path d="M76.7636 73.2379C74.5636 75.2379 75.1636 81.8379 77.3636 81.8379C78.5636 81.8379 79.3636 79.6379 79.3636 76.8379C79.3636 71.6379 78.9636 71.0379 76.7636 73.2379Z" fill="#F2D522"/>
<path d="M26.3638 95.8379C26.9638 96.8379 28.9638 97.8379 30.5638 97.8379C32.1638 97.8379 32.9638 96.8379 32.3638 95.8379C31.7638 94.6379 29.7638 93.8379 28.1638 93.8379C26.5638 93.8379 25.7638 94.6379 26.3638 95.8379Z" fill="#F2D522"/>
<path d="M192.364 23.0379C181.764 26.2379 164.964 34.0379 158.564 38.8379C155.564 41.0379 155.164 42.6379 156.564 45.8379C158.364 49.8379 158.564 49.8379 165.364 44.6379C174.764 37.6379 186.764 32.6379 197.364 31.2379L206.364 30.0379L197.164 32.4379C190.564 34.2379 188.164 35.6379 188.764 37.8379C189.364 40.0379 189.164 40.2379 187.964 38.4379C186.564 36.6379 183.764 37.2379 175.964 40.8379C167.764 44.4379 165.764 46.2379 166.564 49.2379C167.164 51.4379 166.164 54.2379 164.564 55.6379C161.164 58.4379 160.164 65.8379 163.164 65.8379C163.964 65.8379 164.364 68.0379 163.764 71.0379C162.764 76.6379 169.764 85.6379 175.164 86.0379C177.364 86.0379 177.564 86.4379 175.764 87.2379C174.364 87.8379 170.964 86.8379 168.364 85.0379C163.564 82.0379 163.364 82.0379 163.364 85.4379C163.364 89.8379 168.164 94.6379 175.364 97.8379C180.164 99.8379 180.164 99.8379 174.364 98.6379C171.164 98.0379 167.764 96.6379 167.164 95.4379C165.564 92.8379 161.364 95.2379 161.364 98.8379C161.364 100.238 162.564 102.038 163.964 102.438C165.964 103.238 165.964 103.638 163.964 103.638C160.164 103.838 160.764 109.838 164.964 114.438C168.164 118.238 168.164 118.438 164.964 117.238C162.564 116.438 161.364 117.038 161.364 119.038C161.364 121.838 163.564 122.238 176.964 121.238L192.364 120.238L176.964 122.438C160.964 124.438 157.364 126.838 166.364 129.038C176.164 131.438 200.964 123.438 195.164 119.638C193.364 118.438 195.564 118.038 201.364 118.038C206.364 118.038 208.964 118.638 207.364 119.238C205.764 119.838 198.964 123.038 192.364 126.238C183.164 130.838 178.164 132.038 170.964 131.438C163.164 131.038 161.564 131.438 162.364 133.838C162.764 135.438 163.764 139.438 164.364 142.838C166.564 152.638 175.964 174.438 179.964 178.838C182.164 181.038 187.564 187.838 192.164 193.838C196.564 199.838 200.764 205.238 201.364 205.838C202.164 206.438 205.564 211.238 208.964 216.438C222.764 237.238 227.964 251.438 230.364 274.238L231.764 287.838H260.564C276.364 287.838 289.364 287.438 289.364 286.838C289.364 286.238 286.164 280.838 282.364 274.838C263.964 245.838 258.764 227.438 263.364 207.438C267.164 190.638 269.564 188.238 280.764 188.438C285.964 188.638 293.164 187.438 296.364 185.838C301.964 182.838 302.364 182.038 302.364 171.438C302.364 165.038 303.364 159.038 304.964 157.638C306.164 156.238 307.364 153.438 307.364 151.638C307.364 149.638 306.164 147.638 304.964 147.238C302.964 146.438 303.164 145.638 305.364 144.038C307.964 142.238 307.964 141.238 304.764 136.038C301.564 130.638 301.564 129.838 304.564 127.038C306.164 125.238 308.564 123.838 309.564 123.838C314.364 123.838 310.564 114.438 302.564 106.638C293.964 98.4379 292.564 95.4379 287.364 74.6379C284.764 64.0379 270.764 43.2379 260.764 35.4379C243.164 21.4379 214.964 16.4379 192.364 23.0379ZM216.964 29.2379C214.964 29.6379 211.764 29.6379 209.964 29.2379C207.964 28.6379 209.564 28.2379 213.364 28.2379C217.164 28.2379 218.764 28.6379 216.964 29.2379ZM248.764 36.0379C258.964 40.4379 267.364 48.2379 267.364 53.2379C267.364 55.8379 266.164 54.8379 263.364 50.4379C258.964 43.0379 251.364 38.6379 234.364 33.4379C223.364 30.2379 223.164 30.0379 231.364 31.0379C236.164 31.8379 243.964 34.0379 248.764 36.0379ZM211.364 56.2379C214.564 63.6379 216.364 65.8379 218.764 65.0379C220.364 64.2379 222.964 64.6379 224.364 65.8379C226.164 67.4379 227.364 67.4379 228.364 65.8379C228.964 64.8379 230.764 63.8379 232.364 63.8379C234.164 63.8379 233.764 65.4379 230.764 68.8379C227.964 71.8379 225.964 72.8379 225.564 71.2379C224.364 67.4379 220.764 65.8379 217.964 68.2379C216.164 69.6379 214.964 68.8379 213.164 65.2379C211.964 62.4379 207.964 58.6379 204.564 56.8379L198.364 53.6379L204.164 54.8379C209.564 56.0379 209.764 55.8379 207.164 52.4379C203.964 48.2379 199.164 43.8379 193.964 40.2379C191.964 38.8379 194.164 39.6379 198.764 42.0379C205.164 45.4379 208.164 48.6379 211.364 56.2379ZM256.164 53.6379C255.164 54.6379 237.564 45.6379 235.964 43.2379C235.364 42.4379 239.964 44.0379 245.964 47.2379C251.964 50.2379 256.564 53.2379 256.164 53.6379ZM192.964 50.8379C190.164 57.2379 193.764 62.2379 200.364 60.6379C202.964 60.0379 205.564 60.6379 206.564 62.0379C207.564 63.8379 206.964 64.0379 204.764 63.2379C198.564 60.8379 195.364 63.6379 197.564 69.2379C199.764 75.2379 199.764 75.8379 197.764 75.8379C196.964 75.8379 196.164 74.0379 195.964 71.6379C195.764 69.4379 194.164 65.2379 192.364 62.4379C189.764 58.4379 187.764 57.6379 183.164 58.2379C179.964 58.8379 177.364 58.4379 177.364 57.4379C177.364 56.6379 179.964 55.8379 182.964 55.8379C187.164 55.8379 189.364 54.4379 190.964 50.8379C192.164 48.0379 193.764 45.8379 194.364 45.8379C194.764 45.8379 194.364 48.0379 192.964 50.8379ZM218.764 51.8379C224.164 56.6379 227.364 57.8379 234.564 57.8379C239.564 57.8379 245.964 59.0379 248.964 60.6379C253.764 63.0379 254.964 63.0379 258.364 60.6379C260.364 59.0379 263.164 57.8379 264.164 57.8379C265.364 58.0379 264.164 59.2379 261.364 60.6379C257.164 63.0379 256.564 64.6379 257.164 72.6379C257.564 80.2379 256.764 83.4379 252.364 89.0379C249.364 93.0379 246.564 95.6379 245.964 95.0379C245.364 94.6379 247.364 91.6379 250.164 88.4379C261.564 76.0379 253.764 59.8379 236.164 59.8379C227.564 59.8379 215.364 54.8379 215.364 51.4379C215.364 50.6379 213.964 49.8379 212.364 49.8379C210.764 49.8379 209.364 48.8379 209.364 47.8379C209.364 44.6379 211.364 45.4379 218.764 51.8379ZM170.764 61.0379C167.564 62.8379 164.564 63.6379 163.964 63.0379C163.364 62.4379 164.964 61.0379 167.564 60.0379C174.964 57.0379 176.964 57.6379 170.764 61.0379ZM266.964 65.2379C266.764 67.2379 268.164 71.2379 269.964 74.0379C272.164 77.2379 272.964 80.6379 271.964 83.0379C270.164 87.6379 263.364 95.2379 263.364 92.6379C263.364 91.6379 262.164 93.0379 260.764 95.8379C259.364 98.6379 256.564 101.038 254.564 101.438C252.164 102.038 254.364 99.0379 260.164 93.4379C269.964 84.0379 271.764 77.8379 266.364 71.8379C264.564 69.8379 263.764 66.8379 264.564 65.0379C266.164 60.8379 267.764 60.8379 266.964 65.2379ZM182.964 66.2379C185.964 69.2379 186.164 71.8379 183.364 71.8379C182.364 71.8379 181.364 70.4379 181.364 68.6379C181.364 66.2379 179.964 65.6379 176.364 66.2379C173.564 66.8379 171.364 66.4379 171.364 65.6379C171.364 63.0379 180.164 63.4379 182.964 66.2379ZM246.964 67.0379C251.164 70.0379 252.964 78.6379 249.764 80.6379C248.764 81.2379 248.564 79.0379 248.964 75.6379C249.764 70.6379 248.964 69.4379 243.164 66.8379C239.364 65.2379 237.764 64.0379 239.364 63.8379C241.164 63.8379 244.564 65.2379 246.964 67.0379ZM207.364 80.6379C207.364 85.8379 206.164 84.2379 204.564 76.8379C203.564 72.4379 203.764 71.6379 205.364 73.8379C206.364 75.4379 207.364 78.6379 207.364 80.6379ZM243.364 81.6379C243.364 82.6379 241.764 85.0379 239.964 87.2379C237.964 89.2379 236.964 90.0379 237.964 89.0379C238.764 87.8379 239.364 85.4379 239.364 83.4379C239.364 81.4379 240.364 79.8379 241.364 79.8379C242.564 79.8379 243.364 80.6379 243.364 81.6379ZM265.364 84.8379C263.964 86.4379 262.164 87.8379 261.164 87.8379C260.164 87.8379 260.964 86.0379 262.764 83.8379C264.564 81.6379 266.564 80.4379 266.964 80.8379C267.564 81.4379 266.764 83.0379 265.364 84.8379ZM190.964 87.2379C188.964 87.6379 185.764 87.6379 183.964 87.2379C181.964 86.6379 183.564 86.2379 187.364 86.2379C191.164 86.2379 192.764 86.6379 190.964 87.2379ZM224.564 87.8379C227.564 89.0379 233.164 92.6379 236.764 96.0379C242.964 101.238 243.164 101.838 238.964 100.838C234.564 99.6379 233.764 100.438 231.564 107.638C230.364 112.038 227.564 116.638 225.364 117.838C219.164 121.038 218.364 120.038 223.764 115.838C231.564 109.838 232.164 104.238 225.364 100.838C222.164 99.2379 217.164 97.8379 214.364 97.8379C211.364 97.8379 209.564 97.0379 210.364 95.8379C211.764 93.4379 220.564 95.2379 226.564 99.2379C230.164 101.438 231.164 101.438 233.164 99.2379C235.964 95.6379 233.164 93.0379 222.164 89.0379C217.964 87.4379 215.364 86.0379 216.764 86.0379C217.964 85.8379 221.564 86.8379 224.564 87.8379ZM202.364 95.8379C203.164 97.0379 201.364 97.8379 198.364 97.8379C195.564 97.8379 190.964 99.2379 188.364 101.038C185.564 102.838 183.364 103.438 183.364 102.238C183.364 101.238 186.764 98.8379 190.964 97.2379C199.964 93.4379 200.764 93.2379 202.364 95.8379ZM206.764 105.838C207.564 108.438 207.364 108.438 205.764 106.038C203.964 103.638 202.364 103.438 195.764 105.438C191.364 106.838 186.764 107.838 185.364 107.838C180.964 107.838 184.364 105.638 190.564 104.638C193.764 104.038 196.764 103.238 197.164 102.638C199.164 100.638 206.164 103.038 206.764 105.838Z" fill="#CADBA7"/>
<path d="M161.764 50.2379C158.964 53.0379 158.564 55.8379 161.164 55.8379C162.964 55.8379 165.964 49.8379 164.764 48.6379C164.364 48.2379 162.964 49.0379 161.764 50.2379Z" fill="#406B96"/>
<path d="M95.3647 13.8379C95.3647 15.0379 94.3647 15.4379 92.9647 14.6379C91.1647 13.6379 91.1647 14.2379 93.1647 16.4379C95.5647 19.4379 94.9647 20.6379 90.9647 20.0379C89.9647 20.0379 89.3647 20.6379 89.3647 21.8379C89.3647 24.8379 92.5647 24.2379 95.5647 20.6379C97.9647 17.6379 98.3647 17.8379 99.5647 22.0379L100.965 26.8379L101.165 22.2379C101.365 19.6379 99.9647 16.2379 98.3647 14.6379C96.5647 12.8379 95.3647 12.4379 95.3647 13.8379Z" fill="#F2D522"/>
<path d="M60.7645 18.038C61.5645 21.038 62.3645 21.438 63.5645 19.638C65.1645 16.838 64.1645 13.838 61.3645 13.838C60.5645 13.838 60.1645 15.638 60.7645 18.038Z" fill="#F2D522"/>
<path d="M70.1646 22.2379C69.3646 23.6379 69.5646 23.8379 70.9646 23.0379C72.3646 22.2379 73.3646 22.6379 73.3646 23.6379C73.3646 24.8379 72.3646 25.8379 70.9646 25.8379C69.7646 25.8379 69.3646 26.4379 69.9646 27.0379C71.7646 28.8379 77.5646 23.8379 76.1646 21.6379C74.7646 19.2379 71.9646 19.4379 70.1646 22.2379Z" fill="#F2D522"/>
<path d="M19.1647 29.2379L12.3647 36.8379L19.9647 30.0379C23.9647 26.2379 27.3647 22.8379 27.3647 22.4379C27.3647 20.8379 25.7647 22.4379 19.1647 29.2379Z" fill="#F2D522"/>
<path d="M55.5645 26.0381C55.3645 27.8381 56.7645 30.0381 58.5645 30.6381C60.1645 31.2381 61.1645 31.0381 60.3645 30.0381C59.7645 29.0381 59.9645 27.8381 60.7645 27.2381C61.7645 26.8381 61.3645 26.8381 59.9645 27.0381C58.7645 27.4381 57.1645 26.6381 56.5645 25.2381C56.1645 23.8381 55.5645 24.2381 55.5645 26.0381Z" fill="#F2D522"/>
<path d="M26.5646 34.8381C25.5646 37.0381 24.5646 40.4381 24.3646 42.4381C23.9646 45.6381 24.1646 45.8381 26.7646 43.2381C28.3646 41.6381 29.3646 38.2381 28.9646 35.6381C28.3646 31.0381 28.1646 31.0381 26.5646 34.8381Z" fill="#F2D522"/>
<path d="M98.5646 34.038C99.3646 35.438 97.7646 38.038 95.1646 40.238C92.5646 42.438 91.3646 43.638 92.7646 43.038C93.9646 42.438 95.3646 42.638 95.7646 43.638C95.9646 44.638 97.9646 42.438 99.7646 38.638C102.765 32.638 102.965 31.838 100.165 31.838C98.3646 31.838 97.7646 32.838 98.5646 34.038Z" fill="#F2D522"/>
<path d="M51.3647 37.838C51.1647 39.438 51.1647 42.238 51.3647 43.638C51.5647 46.238 51.1647 46.238 48.5647 44.038C45.7647 41.838 45.3647 41.838 45.3647 44.638C45.3647 46.638 46.3647 47.438 47.3647 46.838C48.5647 46.238 49.3647 46.838 49.3647 48.238C49.3647 49.838 50.3647 49.438 51.5647 47.238C52.7647 45.238 53.1647 41.638 52.7647 39.238C52.3647 36.838 51.7647 36.238 51.3647 37.838Z" fill="#F2D522"/>
<path d="M102.965 39.8381C100.965 41.6381 99.3647 44.0381 99.3647 45.0381C99.3647 46.0381 100.165 45.6381 101.165 44.0381C102.165 42.4381 105.565 41.2381 108.965 41.0381C115.365 40.8381 115.765 38.8381 109.965 37.4381C107.965 36.8381 104.765 38.0381 102.965 39.8381Z" fill="#F2D522"/>
<path d="M122.765 39.038C120.365 41.438 123.565 43.838 128.965 43.638C133.165 43.438 133.565 43.238 130.365 42.438C128.165 41.838 125.765 40.638 125.165 39.638C124.565 38.638 123.565 38.438 122.765 39.038Z" fill="#F2D522"/>
<path d="M35.3647 49.838C35.3647 52.038 36.3647 54.238 37.3647 54.838C38.5647 55.438 39.3647 54.838 39.3647 53.038C39.3647 51.438 40.5647 49.838 41.7647 49.438C43.1647 48.838 42.1647 48.038 39.7647 47.438C36.3647 46.438 35.3647 47.038 35.3647 49.838Z" fill="#F2D522"/>
<path d="M84.5646 49.038C81.5646 50.838 76.3646 52.438 73.1646 52.638C69.9646 52.838 66.9646 53.638 66.3646 54.238C64.7646 55.838 82.3646 53.638 87.3646 51.838C87.9646 51.638 88.9646 51.438 89.5646 51.438C90.1646 51.638 90.7646 50.238 90.7646 48.638C90.7646 47.038 90.5646 45.838 90.5646 45.838C90.3646 46.038 87.7646 47.438 84.5646 49.038Z" fill="#F2D522"/>
<path d="M46.7647 53.2381C46.3647 54.2381 46.1647 56.2381 46.3647 57.8381C46.3647 59.4381 45.1647 61.4381 43.3647 62.2381C41.1647 63.4381 41.3647 63.6381 44.3647 63.2381C47.1647 62.8381 48.3647 61.4381 48.1647 58.2381C47.9647 55.0381 48.7647 53.8381 50.7647 54.6381C52.3647 55.2381 52.9647 54.8381 52.3647 53.8381C50.9647 51.4381 47.9647 51.2381 46.7647 53.2381Z" fill="#F2D522"/>
<path d="M81.9644 59.8381C81.9644 64.0381 82.5644 64.8381 84.3644 63.0381C85.7644 61.8381 86.3644 59.6381 85.7644 58.0381C84.9644 56.0381 85.5644 55.8381 88.7644 57.4381C90.9644 58.6381 93.7644 58.8381 95.3644 57.8381C97.7644 56.4381 97.3644 56.0381 94.3644 56.0381C92.1644 56.2381 88.5644 55.8381 86.1644 55.2381C82.7644 54.4381 81.9644 55.0381 81.9644 59.8381Z" fill="#F2D522"/>
<path d="M73.3647 57.8381C70.5647 58.6381 69.3647 59.6381 70.3647 59.6381C71.5647 59.8381 70.9647 60.6381 69.3647 61.8381C67.5647 62.8381 65.5647 62.8381 63.9647 61.4381C62.1647 60.0381 61.3647 60.0381 61.3647 61.6381C61.3647 62.8381 61.9647 63.8381 62.9647 64.0381C63.7647 64.0381 66.3647 64.4381 68.7647 64.6381C71.3647 65.0381 72.9647 64.8381 72.3647 64.2381C71.9647 63.8381 73.5647 61.6381 75.9647 59.6381C80.7647 55.6381 80.5647 55.4381 73.3647 57.8381Z" fill="#F2D522"/>
<path d="M107.164 62.0379C105.164 63.2379 105.764 63.8379 109.964 63.8379C115.764 63.8379 116.964 62.8379 112.764 61.2379C111.164 60.6379 108.764 61.0379 107.164 62.0379Z" fill="#F2D522"/>
<path d="M122.964 63.038C122.164 66.038 122.964 67.038 126.164 67.438C128.364 67.438 129.364 67.038 128.164 66.238C126.964 65.438 125.564 63.438 124.964 61.838C124.364 59.638 123.764 60.038 122.964 63.038Z" fill="#F2D522"/>
<path d="M112.565 67.4381C112.165 68.2381 112.565 70.2381 113.765 71.8381C115.365 74.2381 115.565 74.0381 114.565 71.0381C113.565 68.2381 114.165 67.6381 116.365 68.6381C118.165 69.2381 118.965 69.0381 118.365 67.8381C116.965 65.4381 113.965 65.2381 112.565 67.4381Z" fill="#F2D522"/>
<path d="M19.5648 72.2379C17.5648 77.8379 18.5648 79.8379 22.9648 79.6379C25.9648 79.4379 25.9648 79.2379 22.9648 78.4379C20.1648 77.8379 19.7648 76.8379 21.3648 73.8379C22.7648 71.4379 24.7648 70.4379 26.9648 71.0379C29.7648 72.0379 29.9648 71.8379 27.3648 70.0379C22.9648 66.8379 21.3648 67.2379 19.5648 72.2379Z" fill="#F2D522"/>
<path d="M33.7643 70.438C35.7643 72.038 36.7643 73.838 35.9643 74.638C35.1643 75.438 36.1643 75.438 37.9643 74.638C41.9643 73.238 41.9643 73.238 35.3643 70.038C30.9643 67.838 30.7643 68.038 33.7643 70.438Z" fill="#F2D522"/>
<path d="M66.3644 71.8379C65.9644 72.4379 68.3644 73.0379 71.5644 73.0379C74.7644 73.2379 77.3644 72.8379 77.3644 72.0379C77.3644 70.4379 67.3644 70.2379 66.3644 71.8379Z" fill="#F2D522"/>
<path d="M90.5646 71.438C89.1646 73.638 90.1646 79.438 92.3646 81.238C93.1646 82.038 93.3646 81.638 92.5646 80.238C91.7646 79.038 91.9646 77.838 93.1646 77.838C94.1646 77.838 95.5646 79.038 95.9646 80.238C96.7646 82.238 97.1646 82.238 97.1646 80.238C97.3646 78.838 95.9646 77.238 94.3646 76.638C92.7646 75.838 91.3646 74.638 91.3646 73.438C91.3646 72.438 92.3646 72.238 93.7646 73.038C95.1646 73.838 95.3646 73.638 94.5646 72.238C92.9646 69.438 91.9646 69.238 90.5646 71.438Z" fill="#F2D522"/>
<path d="M28.3646 76.038C27.5646 77.238 27.5646 78.638 28.1646 79.238C28.7646 79.838 28.3646 82.238 27.1646 84.638C25.5646 88.038 25.9646 87.838 29.1646 83.838C33.5646 78.438 34.5646 73.838 31.5646 73.838C30.3646 73.838 28.9646 74.838 28.3646 76.038Z" fill="#F2D522"/>
<path d="M42.1645 78.238C41.3645 79.638 41.3645 80.238 42.1645 79.438C42.9645 78.838 45.9645 79.438 48.9645 81.038C54.9645 84.038 55.9645 83.638 54.1645 79.038C52.7645 75.238 44.1645 74.638 42.1645 78.238Z" fill="#F2D522"/>
<path d="M80.7646 87.2379C79.9646 88.4379 80.9646 90.0379 82.7646 90.6379C86.7646 92.2379 90.7646 88.8379 87.1646 86.8379C85.5646 85.8379 85.1646 86.0379 86.1646 87.4379C86.9646 88.8379 86.7646 89.8379 85.5646 89.8379C84.5646 89.8379 83.3646 88.8379 82.9646 87.4379C82.3646 85.8379 81.7646 85.6379 80.7646 87.2379Z" fill="#F2D522"/>
<path d="M8.56454 148.038C8.96454 148.838 12.3645 149.838 16.1645 150.238C19.9645 150.638 22.7645 150.438 22.1645 149.638C21.7645 148.838 18.3645 147.838 14.5645 147.438C10.7645 147.038 7.96454 147.238 8.56454 148.038Z" fill="#F2D522"/>
</svg>
